<svg width="14" height="14" viewBox="0 0 14 14" fill="none" xmlns="http://www.w3.org/2000/svg">
<g clip-path="url(#clip0_168_764)">
<path d="M7.43781 4.52081C7.43781 4.40478 7.39171 4.2935 7.30966 4.21145C7.22762 4.12941 7.11634 4.08331 7.00031 4.08331C6.88427 4.08331 6.77299 4.12941 6.69095 4.21145C6.6089 4.2935 6.56281 4.40478 6.56281 4.52081V7.46256L5.31243 9.54506C5.25267 9.64462 5.23491 9.76384 5.26305 9.87649C5.2912 9.98914 5.36294 10.086 5.46249 10.1458C5.56205 10.2055 5.68126 10.2233 5.79392 10.1951C5.90657 10.167 6.00342 10.0952 6.06318 9.99569L7.37568 7.80819C7.41636 7.74024 7.43783 7.66251 7.43781 7.58331V4.52081Z" fill="#D9D9D9"/>
<path d="M5.6875 0C5.57147 0 5.46019 0.0460936 5.37814 0.128141C5.29609 0.210188 5.25 0.321468 5.25 0.4375C5.25 0.553532 5.29609 0.664812 5.37814 0.746859C5.46019 0.828906 5.57147 0.875 5.6875 0.875H6.125V1.81125C4.93349 1.98339 3.81911 2.5028 2.92108 3.30459C2.02305 4.10638 1.38117 5.155 1.07563 6.31946C0.770092 7.48393 0.814438 8.7126 1.20313 9.85201C1.59182 10.9914 2.30763 11.991 3.26113 12.726L2.73438 13.2528C2.65222 13.3348 2.60603 13.4461 2.60594 13.5622C2.60586 13.6783 2.6519 13.7897 2.73394 13.8718C2.81597 13.954 2.92728 14.0002 3.04338 14.0002C3.15947 14.0003 3.27085 13.9543 3.353 13.8722L4.00575 13.2195C4.92014 13.7327 5.95142 14.0016 7 14C8.04858 14.0016 9.07986 13.7327 9.99425 13.2195L10.647 13.8722C10.7292 13.9543 10.8405 14.0003 10.9566 14.0002C11.0727 14.0002 11.184 13.954 11.2661 13.8718C11.3481 13.7897 11.3941 13.6783 11.3941 13.5622C11.394 13.4461 11.3478 13.3348 11.2656 13.2528L10.7397 12.726C11.6933 11.991 12.4091 10.9913 12.7977 9.85182C13.1864 8.71235 13.2306 7.48361 12.925 6.31912C12.6194 5.15464 11.9774 4.10603 11.0792 3.30429C10.1811 2.50256 9.06658 1.98325 7.875 1.81125V0.875H8.3125C8.42853 0.875 8.53981 0.828906 8.62186 0.746859C8.70391 0.664812 8.75 0.553532 8.75 0.4375C8.75 0.321468 8.70391 0.210188 8.62186 0.128141C8.53981 0.0460936 8.42853 0 8.3125 0L5.6875 0ZM6.59575 2.64075C6.86486 2.62029 7.13514 2.62029 7.40425 2.64075C8.75758 2.74527 10.0178 3.36988 10.9206 4.38353C11.8233 5.39718 12.2984 6.72108 12.2461 8.07744C12.1938 9.4338 11.6182 10.7172 10.6401 11.6583C9.66198 12.5994 8.35736 13.1252 7 13.1252C5.64264 13.1252 4.33802 12.5994 3.35991 11.6583C2.38179 10.7172 1.8062 9.4338 1.7539 8.07744C1.7016 6.72108 2.17667 5.39718 3.07941 4.38353C3.98216 3.36988 5.24242 2.74527 6.59575 2.64075ZM2.21626e-09 3.0625C2.21626e-09 3.72137 0.291375 4.31288 0.7525 4.71362C1.42778 3.38358 2.50858 2.30278 3.83862 1.6275C3.54627 1.29109 3.15813 1.05201 2.72616 0.942258C2.29418 0.832509 1.83899 0.857329 1.42152 1.0134C1.00404 1.16946 0.644194 1.44933 0.390148 1.81553C0.136103 2.18174 -2.00553e-05 2.6168 2.21626e-09 3.0625H2.21626e-09ZM11.8125 0.875C11.1536 0.875 10.5621 1.16638 10.1614 1.6275C11.4914 2.30278 12.5722 3.38358 13.2475 4.71362C13.5839 4.42127 13.823 4.03313 13.9327 3.60116C14.0425 3.16918 14.0177 2.71399 13.8616 2.29652C13.7055 1.87904 13.4257 1.51919 13.0595 1.26515C12.6933 1.0111 12.2582 0.87498 11.8125 0.875Z" fill="#D9D9D9"/>
</g>
<defs>
<clipPath id="clip0_168_764">
<rect width="14" height="14" fill="white"/>
</clipPath>
</defs>
</svg>
