<svg width="73" height="74" viewBox="0 0 73 74" fill="none" xmlns="http://www.w3.org/2000/svg">
<path fill-rule="evenodd" clip-rule="evenodd" d="M40.15 0.249893C48.55 0.774893 56.425 4.97489 62.2 10.7499C69.025 18.0999 72.7 27.0249 72.7 37.5249C72.7 45.9249 69.55 53.7999 64.3 60.6249C59.05 66.9249 51.7 71.6499 43.3 73.2249C34.9 74.7999 26.5 73.7499 19.15 69.5499C11.8 65.3499 6.025 59.0499 2.875 51.1749C-0.274998 43.2999 -0.799998 34.3749 1.825 26.4999C4.45 18.0999 9.175 11.2749 16.525 6.54989C23.35 1.82489 31.75 -0.275107 40.15 0.249893ZM42.775 67.9749C49.6 66.3999 55.9 62.7249 60.625 56.9499C64.825 51.1749 67.45 44.3499 66.925 36.9999C66.925 28.5999 63.775 20.1999 58 14.4249C52.75 9.17489 46.45 6.02489 39.1 5.49989C32.275 4.97489 24.925 6.54989 19.15 10.7499C13.375 14.9499 9.175 20.7249 7.075 28.0749C4.975 34.8999 4.975 42.2499 8.125 49.0749C11.275 55.8999 16 61.1499 22.3 64.8249C28.6 68.4999 35.95 69.5499 42.775 67.9749Z" fill="white"/>
<path fill-rule="evenodd" clip-rule="evenodd" d="M26.5 21.2499L30.5792 19.0659L54.2043 34.8159V39.1839L30.5792 54.9339L26.5 52.7499V21.2499ZM31.75 26.1534V47.8464L48.0198 36.9999L31.75 26.1534Z" fill="white"/>
</svg>
